<svg version="1.1" id="Layer_1" xmlns="http://www.w3.org/2000/svg" xmlns:xlink="http://www.w3.org/1999/xlink" x="0px" y="0px"
	 width="100%" viewBox="0 0 1024 1024" enable-background="new 0 0 1024 1024" xml:space="preserve">
<path fill="#000000" opacity="1.000000" stroke="none" 
	d="
M782.296326,560.000000 
	C782.296265,608.156128 782.217773,655.812439 782.379822,703.468018 
	C782.404175,710.626099 779.887390,715.614441 774.145691,719.966248 
	C690.516418,783.352356 607.002563,846.890808 523.464966,910.397827 
	C515.211121,916.672607 510.561920,916.868408 502.372650,910.650208 
	C442.133240,864.909729 381.935455,819.114441 321.720520,773.341736 
	C298.509918,755.698120 275.404053,737.913208 251.994308,720.537720 
	C245.885483,716.003601 243.000183,710.639160 243.102173,703.238281 
	C243.210083,695.408386 243.100983,687.575500 243.100021,679.743958 
	C243.085617,561.770142 243.157501,443.796112 242.913376,325.822784 
	C242.892075,315.522827 246.232178,308.632050 254.619934,302.312775 
	C323.676086,250.286255 392.399536,197.818176 461.228668,145.490280 
	C474.888397,135.105377 488.558533,124.734138 502.243500,114.382492 
	C510.258209,108.319931 515.290344,108.345963 523.416016,114.522400 
	C606.978821,178.039520 690.515442,241.591171 774.131409,305.038239 
	C779.782410,309.326233 782.409912,314.319458 782.395447,321.551971 
	C782.236572,400.867706 782.295959,480.183929 782.296326,560.000000 
M419.500031,374.199677 
	C413.001068,374.200317 406.501068,374.269928 400.003662,374.169403 
	C397.201813,374.126038 395.688751,374.772156 395.777435,378.063263 
	C395.911743,383.049469 395.446259,388.048492 395.444885,393.042114 
	C395.417877,491.694244 395.421204,590.346375 395.417908,688.998535 
	C395.417664,695.873901 395.416016,695.895508 402.248566,695.896301 
	C476.071014,695.904724 549.893494,695.907410 623.715942,695.906128 
	C630.660156,695.906067 630.680725,695.888367 630.681030,689.150330 
	C630.685730,586.498779 630.685852,483.847198 630.682068,381.195618 
	C630.681763,374.200592 630.663208,374.203247 623.470154,374.203217 
	C555.813416,374.203033 488.156708,374.201843 419.500031,374.199677 
M431.562317,202.098251 
	C383.031219,238.988373 334.763519,276.234406 285.769135,312.498657 
	C274.621094,320.750122 267.707703,328.742767 270.092163,343.285400 
	C271.288513,350.581787 270.315857,350.748657 277.994080,350.749084 
	C434.616852,350.757660 591.239624,350.764496 747.862366,350.771515 
	C748.695496,350.771545 749.537292,350.690918 750.360168,350.782288 
	C754.136597,351.201721 755.886292,349.866150 755.605469,345.760132 
	C755.219543,340.118073 755.049622,334.437805 755.240417,328.789185 
	C755.343018,325.753357 754.368774,323.900604 752.001099,322.104797 
	C673.956055,262.908844 595.932739,203.684128 518.013367,144.322952 
	C513.925964,141.209045 511.260498,141.339172 507.248840,144.434128 
	C482.325378,163.662537 457.188965,182.614929 431.562317,202.098251 
M446.273132,834.200134 
	C466.981262,849.910583 487.763550,865.525085 508.325775,881.424194 
	C511.825867,884.130554 514.077209,883.929321 517.297729,881.283325 
	C523.472473,876.210327 529.963867,871.522095 536.333191,866.686584 
	C598.840088,819.233154 661.350830,771.784851 723.836060,724.302979 
	C724.624939,723.703308 726.057678,723.290710 725.576721,721.759155 
	C583.509766,721.759155 441.521637,721.759155 298.403778,721.759155 
	C348.118744,759.559814 396.914917,796.661865 446.273132,834.200134 
M369.631012,618.500061 
	C369.628784,539.200989 369.582825,459.901794 369.727356,380.602997 
	C369.736511,375.579315 368.373535,374.055237 363.281952,374.093750 
	C334.296173,374.312988 305.307068,374.290039 276.320984,374.083923 
	C271.433380,374.049194 270.191681,375.645660 270.197327,380.378174 
	C270.320404,483.500244 270.322937,586.622559 270.198547,689.744568 
	C270.192749,694.543457 271.568878,696.028320 276.379730,695.998169 
	C305.532654,695.815063 334.687897,695.821289 363.840790,696.008789 
	C368.521118,696.038818 369.750763,694.481079 369.713776,689.968994 
	C369.521362,666.480713 369.627960,642.989990 369.631012,618.500061 
M704.500000,695.928345 
	C719.830261,695.918701 735.162048,695.789673 750.489746,695.981567 
	C754.437378,696.031006 756.077087,694.812378 755.591736,690.869751 
	C755.450317,689.721375 755.584656,688.539673 755.584656,687.373230 
	C755.585205,587.560425 755.585022,487.747589 755.583984,387.934784 
	C755.583923,384.935455 755.451233,381.930054 755.599609,378.938385 
	C755.762756,375.648895 754.700623,374.117859 751.084473,374.130066 
	C721.257568,374.230865 691.430176,374.233154 661.603271,374.141907 
	C657.958008,374.130768 657.024414,375.755096 657.104004,378.999817 
	C657.234741,384.328766 657.130859,389.663391 657.131226,394.995605 
	C657.137512,492.975494 657.142639,590.955383 657.156189,688.935242 
	C657.157166,695.863770 657.186951,695.883484 664.008179,695.895752 
	C677.172119,695.919495 690.336060,695.918579 704.500000,695.928345 
z"/>
<path fill="#000000" opacity="1.000000" stroke="none" 
	d="
M547.817261,298.889404 
	C518.840637,321.190125 480.792084,311.056335 464.686676,282.947296 
	C453.714020,263.796570 455.246826,239.248032 468.818817,221.374557 
	C482.200195,203.752075 505.239838,195.767120 526.682861,201.320389 
	C548.665283,207.013351 565.241150,224.991943 568.052979,247.020355 
	C570.689941,267.679626 564.049438,285.042969 547.817261,298.889404 
M494.476593,228.948364 
	C485.490692,235.689362 480.833618,244.517883 481.064209,255.910172 
	C481.339661,269.518707 488.082947,278.967957 499.992065,284.578613 
	C512.181274,290.321228 523.759521,288.107849 533.928955,279.567108 
	C544.466858,270.716919 547.343750,258.980865 543.811768,246.172821 
	C538.037109,225.232239 514.000305,216.789444 494.476593,228.948364 
z"/>
</svg>